<svg xmlns:xlink="http://www.w3.org/1999/xlink" xmlns="http://www.w3.org/2000/svg"   fill="currentColor" aria-hidden="true" focusable="false" class="" width="1"  height="1" ><defs><symbol id="icon-a-Frame19701" viewBox="0 0 1024 1024"><path d="M299.52 115.7632c72.0384-35.9936 155.9552-59.136 236.8512-48.0256l-23.9616 49.664c-43.5712 3.6352-88.576 3.328-129.9456 19.456-33.792 11.3664-66.6112 25.5488-97.1776 43.8272 3.584-21.8112 8.6016-43.4688 14.2848-64.9216z" fill="#F9B20F"></path><path d="M536.2688 67.7376c81.664 4.2496 159.9488 36.608 226.7136 83.1488l-0.3072 2.816c-2.1504 20.1216-4.2496 40.1408-6.6048 60.2624-49.152-43.0592-110.08-67.6352-171.0592-88.6784-23.04-9.3696-48.2304-9.472-72.704-7.8848l23.9616-49.664z" fill="#F9BF0F"></path><path d="M66.048 472.064C76.8 324.096 166.2464 183.296 299.52 115.712c-5.6832 21.504-10.752 43.1104-14.336 64.9216-49.6128 43.3152-101.4784 88.064-128.1024 150.0672-47.3088 89.4976-52.6848 198.144-19.712 293.376 13.568 37.632 28.7232 77.9776 63.7952 100.9152 5.6832 11.3152 10.8544 22.9376 16.5888 34.2016-13.2608 13.4656-23.3984 29.696-29.696 47.5136-82.3296-89.8048-131.584-212.1728-121.9584-334.7456z" fill="#F8A50D"></path><path d="M550.4512 129.8432c11.52-1.6384 23.04-3.2256 34.6112-4.5568 60.928 20.992 121.9584 45.568 171.0592 88.6784 69.1712 61.44 114.3808 147.8656 128 239.104 16.64 123.5456-34.048 252.5696-126.976 334.848-53.4016 49.7664-122.88 78.592-193.536 93.184l-37.0176-12.4928a372.8384 372.8384 0 0 0 135.68-35.584c92.5696-45.5168 165.376-130.3552 192.5632-230.144 24.9856-85.248 16.9984-179.3024-20.4288-259.7888-37.376-78.5408-102.8096-142.336-180.5824-180.736-32.9728-15.2064-68.352-23.3984-103.3728-32.512z" fill="#F8CA64"></path><path d="M285.184 180.736a500.1216 500.1216 0 0 1 97.1776-43.9296c-6.144 12.4416-16.896 21.4528-29.184 27.392-109.9264 47.36-190.976 151.04-213.76 268.1856-28.16 101.4784 14.1312 204.288 61.7472 292.608-35.072-22.9376-50.2272-63.2832-63.7952-100.9152-32.9728-95.232-27.5968-203.8272 19.712-293.376 26.624-61.952 78.4896-106.752 128.1536-150.016z" fill="#EC8E1A"></path><path d="M756.1216 214.016c2.3552-20.1728 4.4544-40.192 6.6048-60.3136 66.2016 48.0256 125.696 113.0496 154.7776 190.1056 2.7648 46.9504 20.5312 91.5456 20.992 138.6496 6.656 142.1824-61.1328 286.208-176.896 369.664-51.5584 38.656-112.4352 63.232-175.0528 77.5168a1022.8224 1022.8224 0 0 1-78.4384-7.0144l-7.9872-33.3312c21.1968-1.536 42.5472-4.096 63.488-8.192 70.656-14.592 140.1344-43.4176 193.536-93.184 92.928-82.2784 143.616-211.3024 126.976-334.848-13.6192-91.2384-58.8288-177.6128-128-239.104z" fill="#FBCF10"></path><path d="M917.504 343.808c22.016 30.6688 29.0816 68.352 34.816 104.7552 25.0368 137.4208-19.8656 285.7472-120.3712 383.4368-97.6896 100.096-245.76 145.408-382.976 120.2176-35.6352-6.4512-72.5504-12.4416-103.0656-33.3824 79.5648 11.264 160.6656 33.792 240.64 10.752 62.6176-14.2848 123.4432-38.8608 175.0016-77.4656 115.8144-83.5072 183.552-227.5328 176.8448-369.664-0.3584-47.104-18.176-91.6992-20.8896-138.6496z" fill="#DF8B12"></path><path d="M201.216 724.992c17.92 15.2064 35.328 30.7712 52.0704 47.1552C324.608 843.4688 427.9808 870.4 526.592 868.608l37.0176 12.4416c-20.992 4.1472-42.2912 6.656-63.488 8.192-106.2912-5.2736-211.2512-49.7664-282.3168-130.048-5.7856-11.2128-10.9568-22.8352-16.5888-34.1504z" fill="#F3AF3E"></path><path d="M188.1088 806.7584c6.3488-17.8176 16.384-33.9968 29.696-47.5136 71.1168 80.2816 176.0768 124.7744 282.3168 130.048l7.9872 33.28c26.112 3.072 52.2752 5.9904 78.4896 7.0144-79.9744 23.04-161.0752 0.512-240.64-10.752-61.9008-21.1968-111.5648-67.2768-157.8496-112.128z" fill="#F9B50F"></path><path d="M322.1504 608.9216c3.2768-3.2768 7.68-5.12 12.3392-5.12h428.0832c7.68 0 11.6736 9.5232 6.1952 14.9504l-84.48 84.48a17.3568 17.3568 0 0 1-12.3392 5.12H243.5072c-7.68 0-11.6224-9.5232-6.144-14.9504l84.7872-84.48z" fill="#C931F7"></path><path d="M322.1504 293.3248c3.2768-3.2768 7.68-5.12 12.3392-5.12h428.0832c7.68 0 11.6736 9.472 6.1952 14.9504l-84.48 84.48a17.3568 17.3568 0 0 1-12.3392 5.0688H243.5072c-7.68 0-11.6224-9.472-6.144-14.9504l84.7872-84.48z" fill="#1CE2AF"></path><path d="M683.9808 450.2016a17.3568 17.3568 0 0 0-12.3904-5.12h-428.032c-7.68 0-11.6736 9.5232-6.2464 14.9504l84.48 84.48c3.2768 3.2768 7.6288 5.12 12.3392 5.12h428.0832c7.68 0 11.6736-9.5232 6.1952-14.9504l-84.48-84.48z" fill="#6697CE"></path></symbol></defs><use xlink:href="#icon-a-Frame19701"></use></svg>