<svg xmlns:xlink="http://www.w3.org/1999/xlink" xmlns="http://www.w3.org/2000/svg"   fill="currentColor" aria-hidden="true" focusable="false" class="" width="1"  height="1" ><defs><symbol id="icon-icon_guiji" viewBox="0 0 1024 1024"><path d="M224.6656 307.2H94.5664C68.5568 307.2 51.2 290.816 51.2 266.24V143.36c0-24.576 17.3568-40.96 43.3664-40.96h130.0992c26.0608 0 43.3664 16.384 43.3664 40.96v25.6512h212.992c48.9472 0 94.6688 23.0912 121.8048 61.5424l153.1904 217.0368c1.3824-22.8864 18.3296-37.9904 43.3152-37.9904h130.0992c26.0096 0 43.3664 16.384 43.3664 40.96v122.88c0 24.576-17.3568 40.96-43.3664 40.96h-130.0992c-24.9856 0-41.9328-15.104-43.3152-37.9904l-153.1904 217.0368c-27.136 38.4512-72.8576 61.5424-121.8048 61.5424h-212.992v25.6512c0 24.576-17.3056 40.96-43.3664 40.96H94.5664C68.5568 921.6 51.2 905.216 51.2 880.64v-122.88c0-24.576 17.3568-40.96 43.3664-40.96h130.0992c26.0608 0 43.3664 16.384 43.3664 40.96v25.5488h212.992c23.552 0 45.568-11.1104 58.6752-29.6448l138.0864-195.6864H268.032v15.4624c0 24.576-17.3056 40.96-43.3664 40.96H94.5664C68.5568 614.4 51.2 598.016 51.2 573.44V450.56c0-24.576 17.3568-40.96 43.3664-40.96h130.0992c26.0608 0 43.3664 16.384 43.3664 40.96v35.7888h424.0896L539.6992 270.336a71.7824 71.7824 0 0 0-58.6752-29.6448h-212.992V266.24c0 24.576-17.3056 40.96-43.3664 40.96z m-17.3568-147.456H111.9232v90.112h95.3856V159.744z m609.3824 397.312h95.3856V466.944h-95.3856v90.112zM207.3088 774.144H111.9232v90.112h95.3856v-90.112z m0-307.2H111.9232v90.112h95.3856V466.944z"></path></symbol></defs><use xlink:href="#icon-icon_guiji"></use></svg>