<svg width="26" height="26" viewBox="0 0 26 26" fill="none" xmlns="http://www.w3.org/2000/svg">
<g id="Frame 1509">
<path id="Vector" d="M13 3C7.4857 3 3 7.48623 3 13C3 18.5138 7.4857 23 13 23C18.5143 23 23 18.5138 23 13C23 7.48623 18.5143 3 13 3ZM20.0829 8.38423H17.7922C17.4638 7.18743 17.0123 6.13458 16.4627 5.28723C17.9398 5.95384 19.1957 7.02839 20.0829 8.38449V8.38423ZM16.8463 13C16.8481 14.0322 16.754 15.0622 16.5653 16.077H9.43468C9.0601 14.0428 9.0601 11.9572 9.43468 9.92299H16.5653C16.754 10.9378 16.8481 11.9678 16.8463 13ZM13 21.4615C11.8219 21.4615 10.5595 19.9976 9.81424 17.6155H16.1847C15.4405 19.9976 14.1781 21.4615 13 21.4615ZM9.81424 8.38449C10.5606 6.00237 11.8219 4.5385 13 4.5385C14.1781 4.5385 15.4405 6.00237 16.1858 8.38449H9.81424ZM9.5373 5.2875C8.98769 6.13485 8.53616 7.1877 8.20777 8.38449H5.91708C6.80429 7.02849 8.06027 5.95403 9.5373 5.2875ZM5.12597 9.92299H7.86739C7.53119 11.9606 7.53119 14.0394 7.86739 16.077H5.12597C4.34267 14.1004 4.34267 11.8996 5.12597 9.92299ZM5.91708 17.6155H8.20777C8.53616 18.8123 8.98769 19.8652 9.5373 20.7125C8.06027 20.046 6.80429 18.9715 5.91708 17.6155ZM16.4627 20.7125C17.0123 19.8652 17.4638 18.8123 17.7922 17.6155H20.0829C19.1957 18.9715 17.9397 20.046 16.4627 20.7125ZM20.874 16.077H18.1326C18.4688 14.0394 18.4688 11.9606 18.1326 9.92299H20.874C21.6573 11.8996 21.6573 14.1004 20.874 16.077Z" fill="#FF9815"/>
</g>
</svg>
