<svg xmlns:xlink="http://www.w3.org/1999/xlink" xmlns="http://www.w3.org/2000/svg"   fill="currentColor" aria-hidden="true" focusable="false" class="" width="1"  height="1" ><defs><symbol id="icon-a-Frame2009" viewBox="0 0 1024 1024"><path d="M518.7072 141.568l-374.6304 416.3584a223.744 223.744 0 0 0 16.64 316.0064l28.16 25.344a223.744 223.744 0 0 0 316.0064-16.6912l374.6304-416.3584a223.744 223.744 0 0 0-16.64-316.0064l-28.16-25.344a223.744 223.744 0 0 0-316.0064 16.6912z" fill="#FFFFFF"></path><path d="M887.808 122.368l-27.648-25.088A263.5776 263.5776 0 0 0 671.744 30.208c66.56-3.584 134.656 18.432 188.416 66.56l27.648 25.088a261.4784 261.4784 0 0 1 19.456 369.152l-199.68 221.696-416.256-373.76-174.592 194.048C20.48 640 29.184 805.376 136.192 902.144l27.648 25.088c107.008 96.256 272.384 87.552 369.152-19.456l374.272-416.256c96.256-107.008 87.552-272.384-19.456-369.152z" fill="#51D38E"></path><path d="M167.4752 803.84c-62.976-100.352-24.576-187.904 4.608-220.672l27.648 25.088c-20.48 22.528-53.248 92.16-1.024 176.128l-31.744 19.968 0.512-0.512z" fill="#B9FFDA"></path><path d="M887.808 122.368l-27.648-25.088C753.152 1.024 587.776 9.728 491.008 116.736l-374.272 416.256C20.48 640 29.184 805.376 136.192 902.144l27.648 25.088c107.008 96.256 272.384 87.552 369.152-19.456l374.272-416.256c96.256-107.008 87.552-272.384-19.456-369.152z m-8.192 343.552l-374.272 416.256a224.256 224.256 0 0 1-316.416 16.896l-27.648-25.088a224.256 224.256 0 0 1-16.896-316.416l374.272-415.744a224.256 224.256 0 0 1 316.416-16.896l27.648 25.088a224.256 224.256 0 0 1 16.896 316.416V465.92z" fill="#000000"></path></symbol></defs><use xlink:href="#icon-a-Frame2009"></use></svg>