<svg xmlns:xlink="http://www.w3.org/1999/xlink" xmlns="http://www.w3.org/2000/svg"   fill="currentColor" aria-hidden="true" focusable="false" class="" width="1"  height="1" ><defs><symbol id="icon-a-icon_bingkai1" viewBox="0 0 1024 1024"><path d="M942.7968 820.736a34.6624 34.6624 0 0 0-69.3248 0c0 149.9136 0.256-76.9536 0.256 73.0112H110.2336V130.2528h763.4944l-0.256 357.9904a34.6624 34.6624 0 0 0 69.3248 0l0.256-357.9904c0-38.2464-31.232-69.4272-69.4784-69.4272H110.1824A69.632 69.632 0 0 0 40.8576 130.2528v763.4944c0 38.2464 31.1808 69.4272 69.4272 69.4272h763.4944c38.2464 0 69.4272-31.232 69.4272-69.4272l-0.256-73.0624h-0.1024z" fill="#D4D5D9"></path><path d="M492.032 725.7088a34.5088 34.5088 0 0 0 34.2528-34.7648v-152.7808h145.2032a34.5088 34.5088 0 0 0 34.2528-34.816c0-19.1488-15.36-34.7136-34.2528-34.7136h-145.1008V333.056c0-19.1488-15.36-34.7648-34.2016-34.7648a34.5088 34.5088 0 0 0-34.2528 34.816V468.48h-145.408a34.5088 34.5088 0 0 0-34.2016 34.7648c0 19.1488 15.36 34.7648 34.2016 34.7648H457.728v152.7808a34.7136 34.7136 0 0 0 34.304 34.8672z" fill="#D4D5D9"></path><path d="M781.312 559.3088l-165.888 176.9984a92.4672 92.4672 0 0 0 7.3728 134.3488l12.4416 10.752a102.0416 102.0416 0 0 0 139.9808-7.0656l165.9904-176.9984a92.4672 92.4672 0 0 0-7.424-134.3488l-12.4416-10.752a102.0416 102.0416 0 0 0-139.9808 7.0656z" fill="#FFFFFF"></path><path d="M944.896 551.168l-12.288-10.6496a119.808 119.808 0 0 0-83.456-28.5184 118.5792 118.5792 0 0 1 83.456 28.3136l12.288 10.6496a108.032 108.032 0 0 1 8.6016 156.928l-88.4736 94.208-184.32-158.8736-77.3632 82.4832a108.2368 108.2368 0 0 0 8.6016 156.928l12.288 10.6496c47.36 40.96 120.6272 37.2224 163.4816-8.2432l165.7856-176.9472a108.2368 108.2368 0 0 0-8.6016-156.928z" fill="#51D38E"></path><path d="M625.7664 840.8576c-27.904-42.6496-10.9056-79.872 2.048-93.7984l12.2368 10.6496c-9.0624 9.5744-23.552 39.168-0.4608 74.8544l-14.08 8.4992 0.256-0.2048z" fill="#B9FFDA"></path><path d="M944.896 551.168l-12.288-10.6496a119.5008 119.5008 0 0 0-163.4816 8.2432l-165.8368 176.9472a108.2368 108.2368 0 0 0 8.6528 156.928l12.288 10.6496c47.36 40.96 120.6272 37.2224 163.4816-8.2432l165.7856-176.9472a108.2368 108.2368 0 0 0-8.6016-156.928z m-3.6352 146.0224l-165.7856 176.9472c-36.7616 39.168-99.328 42.24-140.1856 7.168l-12.288-10.6496a92.672 92.672 0 0 1-7.424-134.5024l165.7856-176.6912a102.2976 102.2976 0 0 1 140.1344-7.168l12.288 10.6496a92.672 92.672 0 0 1 7.4752 134.5024v-0.256z" fill="#000000"></path></symbol></defs><use xlink:href="#icon-a-icon_bingkai1"></use></svg>