<svg xmlns:xlink="http://www.w3.org/1999/xlink" xmlns="http://www.w3.org/2000/svg"   fill="currentColor" aria-hidden="true" focusable="false" class="" width="1"  height="1" ><defs><symbol id="icon-icon_zhuanzhang" viewBox="0 0 1024 1024"><path d="M799.3344 307.2h130.0992c26.0096 0 43.3664-16.384 43.3664-40.96V143.36c0-24.576-17.3568-40.96-43.3664-40.96h-130.0992c-26.0608 0-43.3664 16.384-43.3664 40.96v25.6512h-212.992c-48.9472 0-94.6688 23.0912-121.8048 61.5424L267.9808 447.5904C266.5984 424.704 249.6512 409.6 224.6656 409.6H94.5664C68.5568 409.6 51.2 425.984 51.2 450.56v122.88c0 24.576 17.3568 40.96 43.3664 40.96h130.0992c24.9856 0 41.9328-15.104 43.3152-37.9904l153.1904 217.0368c27.136 38.4512 72.8576 61.5424 121.8048 61.5424h212.992v25.6512c0 24.576 17.3056 40.96 43.3664 40.96h130.0992c26.0096 0 43.3664-16.384 43.3664-40.96v-122.88c0-24.576-17.3568-40.96-43.3664-40.96h-130.0992c-26.0608 0-43.3664 16.384-43.3664 40.96v25.5488h-212.992c-23.552 0-45.568-11.1104-58.6752-29.6448l-138.0864-195.6864h409.7536v15.4624c0 24.576 17.3056 40.96 43.3664 40.96h130.0992c26.0096 0 43.3664-16.384 43.3664-40.96V450.56c0-24.576-17.3568-40.96-43.3664-40.96h-130.0992c-26.0608 0-43.3664 16.384-43.3664 40.96v35.7888H331.8784L484.3008 270.336a71.7824 71.7824 0 0 1 58.6752-29.6448h212.992V266.24c0 24.576 17.3056 40.96 43.3664 40.96z m17.3568-147.456h95.3856v90.112h-95.3856V159.744zM207.3088 557.056H111.9232V466.944h95.3856v90.112z m609.3824 217.088h95.3856v90.112h-95.3856v-90.112z m0-307.2h95.3856v90.112h-95.3856V466.944z"></path></symbol></defs><use xlink:href="#icon-icon_zhuanzhang"></use></svg>