<svg xmlns:xlink="http://www.w3.org/1999/xlink" xmlns="http://www.w3.org/2000/svg"   fill="currentColor" aria-hidden="true" focusable="false" class="" width="1"  height="1" ><defs><symbol id="icon-icon_piliang4" viewBox="0 0 1024 1024"><path d="M921.6 762.2656v118.4768c0 23.8592-15.4112 39.4752-38.6048 39.4752H141.0048c-23.1936 0-38.6048-15.616-38.6048-39.424v-118.528c0-23.8592 15.4112-39.5264 38.6048-39.5264h142.0288a317.7472 317.7472 0 0 1-64.9728-118.4768H141.0048c-23.1936 0-38.6048-15.616-38.6048-39.424V446.208c0-23.8592 15.4112-39.424 38.6048-39.424h81.2544a317.44 317.44 0 0 1 60.7744-105.3696H141.0048c-23.1936 0-38.6048-15.6672-38.6048-39.5264V143.4624c0-23.8592 15.4112-39.424 38.6048-39.424h741.9904c23.1936 0 38.6048 15.5648 38.6048 39.424v118.4768c0 23.8592-15.4112 39.5264-38.6048 39.5264h-142.0288a317.44 317.44 0 0 1 60.7744 105.3184h81.2544c23.1936 0 38.6048 15.616 38.6048 39.4752v118.528c0 23.8592-15.4112 39.4752-38.6048 39.4752h-77.056a317.7472 317.7472 0 0 1-64.9728 118.4768h142.0288c23.1936 0 38.6048 15.6672 38.6048 39.5264zM156.416 461.9264v87.1936h50.4832a326.8608 326.8608 0 0 1 1.7408-87.1936h-52.224z m660.6848 87.1936h50.4832V461.9264h-52.224a330.1888 330.1888 0 0 1 1.7408 87.1936z m50.4832-302.7968V159.0784H156.416v87.2448h189.3888c47.9232-31.744 104.96-50.176 166.1952-50.176 61.2352 0 118.272 18.432 166.1952 50.176h189.3888zM768 512.1024c0-145.408-114.6368-263.3216-256-263.3216s-256 117.9136-256 263.3216 114.6368 263.3216 256 263.3216 256-117.9136 256-263.3216z m99.584 265.7792h-189.3888c-47.9232 31.744-104.96 50.176-166.1952 50.176-61.2352 0-118.272-18.432-166.1952-50.176H156.416v87.2448h711.168v-87.2448zM332.8 538.4192c0-14.5408 11.4688-26.3168 25.6-26.3168h204.8l-46.08-63.1808a26.8288 26.8288 0 0 1 5.12-36.864 25.088 25.088 0 0 1 35.84 5.2736l107.52 147.456H358.4a26.0096 26.0096 0 0 1-25.6-26.368z"></path></symbol></defs><use xlink:href="#icon-icon_piliang4"></use></svg>